PathFileType	4	(X/Y/Z)	D:\TRACE\v60_Jaco2_6-2-23\BothDRS_Motion2_6-v60.trc
DataRate	CameraRate	NumFrames	NumMarkers	Units	OrigDataRate	OrigDataStartFrame	OrigNumFrames
100.00	100.00	      24	9	mm	100.00	3751	      7500
Frame#	Time	front left toe			Front right toe			aft left toe			aft right toe			Arm			FL body			FR body			AL Body			AR Body			
		X1	Y1	Z1	X2	Y2	Z2	X3	Y3	Z3	X4	Y4	Z4	X5	Y5	Z5	X6	Y6	Z6	X7	Y7	Z7	X8	Y8	Z8	X9	Y9	Z9	

3751	37.500	-127.19762	38.50329	-186.27380	276.99454	40.04803	-188.21849	-85.53259	-24.51658	441.76694	258.30441	-22.55094	438.99112	138.53603	1126.22729	-554.52209	-15.32339	594.39777	-306.71945	144.61679	594.01013	-312.16919	14.84274	520.56213	636.11267	171.45364	514.78741	632.13727	
3752	37.510	-127.56982	38.42957	-186.74228	276.84552	38.57349	-188.84373	-88.02261	-25.00896	441.78757	256.89200	-22.49000	438.70395	137.27780	1127.46729	-554.49915	-16.01706	595.04291	-307.61356	144.20480	594.95184	-313.26178	15.20791	520.18140	635.17914	171.85886	514.54132	631.18707	
3753	37.520	-128.71442	38.58951	-187.15187	275.61984	38.21491	-188.48557	-88.76955	-24.62825	442.66733	256.20261	-21.82051	438.25931	135.92783	1128.34241	-555.21985	-16.83780	595.74127	-307.94556	142.92963	595.58270	-313.49030	16.25938	521.37775	634.68219	172.54070	516.32727	630.16113	
3754	37.530	-129.08456	39.27900	-187.76503	274.23630	37.99842	-188.87744	-88.55254	-23.53916	442.24384	255.58838	-20.56318	438.04855	134.50597	1129.33862	-556.26691	-17.89207	596.09894	-308.39380	142.25806	595.88953	-314.12589	16.92063	523.72333	634.15192	173.31943	518.28723	629.67621	
3755	37.540	-127.94638	42.22979	-186.72501	273.47711	37.56743	-188.98233	-88.59997	-23.87491	443.24878	253.68413	-17.71456	438.22705	132.97617	1129.83459	-558.26080	-18.56355	596.49744	-308.80930	141.62073	596.71368	-315.05624	17.52794	525.12427	634.05554	173.96664	519.51984	629.29205	
3756	37.550	-124.79126	45.35486	-184.20302	272.64001	37.34512	-189.03439	-89.83027	-23.56211	443.20331	251.39842	-13.87272	440.86646	131.53683	1129.49890	-559.98944	-19.77851	597.82111	-308.81650	140.25533	597.63489	-315.34042	18.00445	525.70782	633.79492	174.50870	519.83801	628.63806	
3757	37.560	-122.15756	56.15604	-184.16649	271.48480	37.28419	-189.37286	-90.97800	-23.14604	442.85507	248.86378	-3.53017	439.78131	129.94186	1128.81763	-560.80634	-20.65530	599.05396	-309.49844	139.50772	598.60016	-315.96674	18.91582	525.60095	633.27710	175.71828	520.05066	629.44556	
3758	37.570	-121.59362	65.51345	-185.55862	270.66232	36.90887	-189.54997	-91.75412	-22.99639	442.82706	245.41388	6.06667	438.13919	128.38997	1128.89404	-560.94818	-21.35225	599.64264	-309.97513	138.24693	599.21552	-316.96024	18.70642	525.86047	632.33655	175.06543	519.81628	626.77350	
3759	37.580	-124.47822	79.66734	-187.43576	269.89407	36.46742	-189.71736	-92.79964	-22.42520	442.91125	245.07906	19.66740	435.16537	127.35452	1130.21265	-561.06488	-22.20387	599.87976	-310.69855	137.90874	599.23895	-317.36087	18.83698	525.46472	631.77728	175.33691	519.46948	626.14087	
3760	37.590	-126.97842	92.37621	-189.78679	269.19357	36.21857	-189.84926	-93.71351	-22.34425	442.74951	245.48396	31.78387	432.31522	126.88805	1131.64832	-561.15881	-22.76119	599.90894	-311.42810	137.17938	599.40784	-318.93646	18.80279	525.15302	631.18378	175.01070	519.00934	625.12744	
3761	37.600	-130.23314	106.84647	-191.33510	268.02283	35.72505	-190.13791	-94.68349	-22.31909	442.74649	250.20293	46.82821	429.42896	126.76289	1132.54224	-561.10370	-23.36138	600.07013	-312.04199	136.96248	599.24219	-319.28058	18.07885	524.52594	629.93274	174.11298	518.02924	624.36743	
3762	37.610	-131.72966	120.34617	-192.06494	267.34109	35.54864	-190.20432	-95.60220	-22.16637	442.67444	253.09427	59.83907	426.97137	126.80106	1132.59155	-561.08368	-24.17661	600.15570	-312.78757	135.85320	599.28394	-320.30521	17.60535	523.76984	629.67633	173.59956	517.25006	623.54834	
3763	37.620	-132.77939	133.26018	-192.61609	266.23499	35.25121	-190.61896	-96.72467	-21.90992	442.51697	254.05385	71.23369	424.81384	127.12502	1132.47742	-561.14789	-24.82218	600.47931	-313.29279	135.26633	599.44043	-320.47244	16.78736	523.01868	628.60242	172.93132	516.27789	622.85797	
3764	37.630	-133.85190	145.32906	-193.19275	265.26932	35.03156	-190.50026	-97.99697	-21.35784	442.38025	254.91516	82.90480	422.73325	128.06955	1132.52649	-561.53113	-25.45021	600.82007	-313.96835	134.29694	599.76593	-321.14197	16.26278	522.10339	628.18317	172.61453	515.33246	622.65308	
3765	37.640	-134.68069	155.87837	-193.59325	264.42191	34.77354	-190.81013	-98.75663	-20.88390	442.29526	255.45911	93.69678	421.02054	128.99861	1132.58691	-561.66553	-26.14325	601.14984	-314.44858	133.80103	599.67822	-321.43716	16.10986	521.86603	627.73853	172.75119	514.94739	623.39001	
3766	37.650	-136.70615	165.41698	-194.00728	263.34354	34.43314	-191.06625	-99.98286	-20.32114	442.10538	255.48427	103.34172	419.56198	129.64679	1132.56726	-561.98743	-26.80124	601.28485	-314.98288	132.74869	599.41919	-322.15784	15.01168	521.96313	627.02997	170.97855	514.37512	621.05316	
3767	37.660	-138.38762	172.35686	-194.15599	262.34915	34.03446	-191.32050	-101.13526	-19.87568	441.80734	255.51465	110.45290	418.25443	130.16393	1132.61169	-562.19250	-27.78439	601.31323	-315.58444	132.29787	599.36993	-322.99026	14.42932	521.71979	626.64471	170.59012	514.13617	620.98413	
3768	37.670	-139.85233	177.16524	-193.84709	261.32834	33.77277	-191.51007	-101.79153	-19.64638	441.69388	255.52252	114.27775	417.70697	130.16046	1132.63574	-562.64276	-28.17638	601.53546	-315.87708	131.93024	599.13177	-323.17197	13.61381	521.77301	626.27960	170.38986	514.04395	622.20386	
3769	37.680	-140.76289	178.03401	-192.91136	260.33716	33.48309	-191.68080	-103.35084	-18.82756	441.73071	256.66196	114.84222	417.60168	130.43541	1132.53870	-563.03479	-28.45469	601.71295	-316.18997	130.94258	598.68054	-323.24158	12.42012	522.18396	625.55225	168.36874	513.76202	619.90198	
3770	37.690	-142.13284	176.36934	-191.69313	259.03442	33.20763	-192.06703	-104.53602	-18.22945	441.42429	257.55484	111.86764	418.18140	130.25975	1132.07678	-563.67694	-29.01789	601.99188	-316.67163	130.41025	598.58276	-323.52130	11.49044	522.36334	625.26569	167.33470	513.69220	619.63647	
3771	37.700	-143.24940	172.34615	-190.32918	258.41870	33.16987	-192.03008	-105.69684	-17.71693	441.32474	258.37616	107.57761	418.69528	130.76225	1131.48987	-564.38763	-29.82818	602.21539	-316.98199	130.47536	598.76471	-324.26831	10.77414	522.72211	625.07709	166.80460	513.75256	619.68866	
3772	37.710	-143.83521	167.56590	-189.61588	257.19370	32.67315	-192.32927	-107.28040	-16.80302	441.26672	259.17450	103.20401	419.77600	131.54294	1130.94006	-565.28418	-30.27733	602.48157	-317.42923	129.66185	598.65308	-324.79013	9.81433	523.05872	624.74347	165.48772	513.85211	618.99091	
3773	37.720	-143.91545	161.35030	-188.28560	256.14554	32.44251	-192.47058	-108.42610	-16.45004	440.96616	257.92703	96.89812	420.47482	132.33260	1130.71826	-565.71881	-31.13642	602.55811	-317.81622	129.11610	598.40002	-325.30142	9.12516	523.53247	624.30786	165.09268	514.12207	619.31763	
3774	37.730	-143.85114	154.28368	-187.81578	255.04741	32.06983	-192.63219	-108.34064	-16.70246	441.02637	258.51419	90.99735	421.59961	133.98904	1130.61584	-566.02271	-31.80626	602.38080	-318.27502	128.60370	598.00787	-325.67566	8.10597	524.32947	623.73376	165.03470	514.45862	620.16681	
